# xmcd
#
# Track frame offsets:
#	150
#	21673
#	39133
#	59449
#	81897
#	95334
#	111251
#	128394
#	143754
#	162903
#	175337
#	193009
#	208024
#	225919
#	242588
#	267477
#
# Disc length: 3809
#
# Revision: 6
# Processed by: cddbd v1.5.1PL0 Copyright (c) Steve Scherf et al.
# Submitted via: FreeRIP 2.90 
# Normalized: r5:DSETVAR1,TDELIM( - )
#
DISCID=d40edf10
DTITLE=Various Artist - Malhação Internacional 2004
DYEAR=2004
DGENRE=Soundtrack
TTITLE0=Benny Benassi - Satisfaction
TTITLE1=Three Days Grace - I Hate Everything About You
TTITLE2=Limp Bizkit - Behind Blue Eyes
TTITLE3=Black Eyed Peas - Shut Up
TTITLE4=B2k - Girlfriend-Remix
TTITLE5=Sasha-Sean Paul - I'm Still in Love with You
TTITLE6=Blink 182 - I Miss You
TTITLE7=Avril Lavigne - Don't Tell Me
TTITLE8=Gothic - My Immortal
TTITLE9=Maria Mena - You're the Only One
TTITLE10=3 Doors Down - Here without You
TTITLE11=Smash Mouth - Waste
TTITLE12=Da Big Boy Daddy-Babbotz - Blond Thang!
TTITLE13=Phunk Freaks - I Don't Make You Happy
TTITLE14=New Deal - Piano
TTITLE15=The Bombers - Pause
EXTD=YEAR: 2004
EXTT0=
EXTT1=
EXTT2=
EXTT3=
EXTT4=
EXTT5=
EXTT6=
EXTT7=
EXTT8=
EXTT9=
EXTT10=
EXTT11=
EXTT12=
EXTT13=
EXTT14=
EXTT15=
PLAYORDER=
